<svg width="15" height="14" viewBox="0 0 15 14" fill="none" xmlns="http://www.w3.org/2000/svg">
<path id="Vector" d="M6.84443 0.345019C7.09036 -0.115005 7.75794 -0.115007 8.00387 0.345018L9.87818 3.85097C9.97302 4.02838 10.1459 4.15232 10.3462 4.18652L14.304 4.86235C14.8233 4.95103 15.0296 5.57762 14.6622 5.95061L11.8628 8.79324C11.7212 8.93708 11.6551 9.13763 11.6841 9.33617L12.2558 13.2598C12.3308 13.7746 11.7908 14.1619 11.3178 13.9324L7.71337 12.1833C7.53099 12.0948 7.31732 12.0948 7.13493 12.1833L3.53049 13.9324C3.05754 14.1619 2.51746 13.7746 2.59248 13.2598L3.16423 9.33617C3.19316 9.13763 3.12713 8.93708 2.98548 8.79324L0.186062 5.95061C-0.181255 5.57762 0.0250385 4.95103 0.54435 4.86235L4.50215 4.18652C4.70242 4.15232 4.87528 4.02838 4.97012 3.85097L6.84443 0.345019Z" fill="#FF6741"/>
</svg>
